<?xml version="1.0" encoding="utf-8"?>
<!-- Generator: Adobe Illustrator 21.1.0, SVG Export Plug-In . SVG Version: 6.00 Build 0)  -->
<svg version="1.1" id="Camada_1" xmlns="http://www.w3.org/2000/svg" xmlns:xlink="http://www.w3.org/1999/xlink" x="0px" y="0px"
	 viewBox="0 0 612 792" style="enable-background:new 0 0 612 792;" xml:space="preserve">
<style type="text/css">
	.st0{fill:#ECEFE5;}
	.st1{fill:#2122FE;}
	.st2{fill:#1416FE;}
	.st3{fill:#1213FE;}
	.st4{fill:#1314FE;}
	.st5{fill:#1415FE;}
	.st6{fill:#7373FE;}
	.st7{fill:#0F10FE;}
	.st8{fill:#1112FE;}
	.st9{fill:#1315FE;}
	.st10{fill:#1516FE;}
	.st11{fill:#1F20FE;}
	.st12{fill:#EFF2E8;}
</style>
<g>
	<g>
		<path class="st0" d="M251,411.9c-8.6,0-17.3,0-25.9,0c-1.6,0-2.1-0.4-2.1-2.1c0.1-17.3,0.1-34.6,0-51.9c0-1.6,0.5-2,2-2
			c17.3,0,34.7,0,52,0c1.5,0,2,0.4,2,2c-0.1,17.4,0,34.7,0,52.1c0,1.5-0.5,1.9-1.9,1.9C268.4,411.9,259.7,411.9,251,411.9z"/>
	</g>
	<g>
		<path class="st1" d="M266,406c0,0.5,0,1-0.3,1.4c-0.2-0.1-0.1-0.3-0.2-0.5c0.1,0.2-0.1,0.5,0.2,0.7c0.1,0.8-0.1,1.2-1.3,1.2
			c-1.5,0-1.6-0.7-1.6-1.5c0.1-0.1,0.1-0.2,0.1-0.4c0-0.1,0.1-0.2,0-0.3c0,0.1-0.1,0.2-0.2,0.2c-0.3-0.9-0.6-1.8-0.9-2.7
			c-0.8,0.5-0.3,1.4-0.8,1.9c-0.1-0.1-0.2-0.2-0.2-0.3c0,0.3-0.1,0.5,0.1,0.7c0,0.3-0.1,0.6-0.1,0.9c0,1.3-0.9,1.6-2.3,1.3
			c-0.2-0.1-0.1-0.3-0.2-0.5c0-0.2,0.1-0.3,0-0.5c0,0.2,0,0.4-0.2,0.5c-0.5-1.6-0.8-3.2-1-4.8c0.1-0.1,0.1-0.1,0.1-0.2
			c0-0.2,0-0.3,0.1-0.5c-0.1,0.2,0,0.4-0.2,0.5c-0.3-0.4-0.6-1-0.2-1.3c0.4-0.3,1.1-0.4,1.6,0.1c-0.1,0.2,0-0.1-0.1,0.1
			c-0.1,0.2,0,0.4-0.1,0.6c0.1-0.2,0-0.4,0.3-0.5c0.3,0.5,0.3,1,0.3,1.5c-0.3,0.5,0,1-0.1,1.3c0.1,0.4,0.4,0.2,0.2,0.3
			c-0.1,0-0.1,0-0.1-0.1c0-0.3-0.1-0.5,0.2-0.7c0.1,0.5,0.3,1.1,0.4,1.6c0.7-0.6,0.3-1.5,0.9-2.2c0.2,0.1,0.1,0.2,0.3,0.3
			c-0.1-0.3,0.1-0.6-0.2-0.8c0.2-0.7-0.4-1.7,1.3-1.7c1,0,1.6,0.1,1.6,1c0,0.7,0.2,1.4,0.3,2c0.2,0.5-0.3,1.1,0.5,1.4
			c0.5-0.3,0.2-0.8,0.4-1.1c0.1-0.6,0-1.2,0.4-1.7c0.3,0.3,0.3,0.5,0.2,0.7c0.1-0.4,0.1-0.9-0.1-1.4c-0.2-0.9,0.5-0.9,1.3-0.9
			c1,0,0.6,0.5,0.5,0.9c-0.1,0.4-0.2,0.8-0.3,1.2c-0.2-0.1-0.2-0.2-0.2-0.3c0,0.3-0.1,0.5,0.1,0.8c0,0.4,0.1,0.9-0.3,1.2
			c-0.2-0.1-0.2-0.2-0.2-0.3C265.9,405.5,265.8,405.7,266,406z"/>
		<path class="st1" d="M269.7,408.8c-1-0.1-1.6-0.6-1.8-1.4c0-0.7,0.8-0.6,1.4-0.8c0.5,0.3,0.4,1,1.2,1.1c0.7,0.1,1.4,0.1,1.7-0.5
			c0.3-0.6-0.1-1-0.9-1.1c-0.3-0.1-0.7-0.2-1-0.2c0.1-0.1,0.2-0.2,0.4-0.2c-0.3,0-0.7-0.1-1,0.1c-1.5-0.2-1.9-0.9-1.9-2
			c0.1-1.1,0.8-1.8,2.3-1.9c0.6,0.2,1.2,0.2,1.8,0c1.3,0.1,2.1,0.6,2.1,1.7c0,0.2-1.2,0.4,0,0.6c-0.7,0.3-1.5,0.7-1.8-0.3
			c-0.2-0.7-0.9-0.9-1.7-0.7c-0.5,0.1-0.8,0.4-0.8,0.8c0.1,0.7,0.8,0.7,1.4,0.8c1.1,0.2,2.5,0.2,2.9,1.3c-0.2,0.6-0.1,1.1,0,1.7
			c-0.3,0.7-0.8,1-1.7,1.1C271.3,408.5,270.5,408.7,269.7,408.8z"/>
		<path class="st2" d="M263.9,406.5c-0.7-0.5-0.7-1.1-0.3-1.8c0.4,0.3,0.3,0.8,0.4,1.2C264.1,406.1,264.1,406.3,263.9,406.5z"/>
		<path class="st3" d="M269.7,408.8c0.8-0.4,1.7-0.4,2.5,0C271.3,409,270.5,409,269.7,408.8z"/>
		<path class="st4" d="M273.9,407.6c-0.4-0.6-0.5-1.1,0-1.7C274.3,406.5,274.2,407.1,273.9,407.6z"/>
		<path class="st5" d="M265,402.6c0.6,0.5,0.2,1.1,0.1,1.7c-0.1-0.3-0.1-0.6-0.2-0.9C265,403.1,265,402.9,265,402.6z"/>
		<path class="st5" d="M259,404.5c-0.1,0.3-0.1,0.6-0.2,0.9c-0.3-0.6-0.5-1.2,0.1-1.7C258.9,404,258.9,404.2,259,404.5z"/>
		<path class="st6" d="M263.9,406.5c0-0.2,0-0.4,0-0.6c0.5-0.2,0.3-0.6,0.6-0.9C264.5,405.6,265,406.3,263.9,406.5z"/>
		<path class="st7" d="M269.3,406.5c-0.5,0.3-0.9,0.5-1.4,0.8C267.3,406,268.5,406.5,269.3,406.5z"/>
		<path class="st3" d="M271.8,401.8c-0.6,0.4-1.2,0.4-1.8,0C270.6,401.6,271.2,401.6,271.8,401.8z"/>
		<path class="st4" d="M257.1,403.2c0-0.3,0.1-0.6,0.2-1.1c0.3,0.6,0.3,1-0.1,1.3C257,403.4,257,403.3,257.1,403.2z"/>
		<path class="st8" d="M258.6,402.2c0,0.3-0.1,0.6-0.2,1.1c-0.3-0.6-0.4-1,0.1-1.3C258.6,402.1,258.6,402.2,258.6,402.2z"/>
		<path class="st5" d="M266.4,404.3c-0.5-0.3-0.4-0.7-0.2-1.1c0.4,0.2,0.2,0.5,0.3,0.7C266.5,404,266.4,404.1,266.4,404.3z"/>
		<path class="st4" d="M260.4,403.4c0.4,0.3,0.4,0.7,0.1,1.3c-0.1-0.4-0.2-0.6-0.2-0.8C260.3,403.8,260.3,403.6,260.4,403.4z"/>
		<path class="st4" d="M273.9,404c-0.3,0-0.7,0-1.5,0c0.7-0.3,1.1-0.4,1.4-0.6C273.9,403.6,273.9,403.8,273.9,404z"/>
		<path class="st5" d="M266,406c-0.5-0.3-0.4-0.7-0.2-1.1c0.4,0.2,0.2,0.5,0.3,0.7C266.1,405.7,266.1,405.8,266,406z"/>
		<path class="st9" d="M261,406.5c-0.4-0.3-0.4-0.7-0.1-1.3c0.1,0.4,0.2,0.6,0.2,0.8C261.1,406.2,261,406.4,261,406.5z"/>
		<path class="st5" d="M269.7,405.7c0.4-0.4,0.9-0.2,1.5-0.2c-0.2,0.4-0.6,0.2-0.9,0.3C270.1,405.7,269.9,405.7,269.7,405.7z"/>
		<path class="st10" d="M262.8,406.9c0-0.2,0.1-0.4,0.2-0.9c0.3,0.6,0.4,1-0.1,1.4C262.8,407.2,262.8,407,262.8,406.9z"/>
		<path class="st9" d="M265.7,407.7c-0.5-0.3-0.4-0.7-0.1-1.3c0.1,0.5,0.1,0.8,0.2,1.1C265.8,407.5,265.8,407.6,265.7,407.7z"/>
		<path class="st5" d="M258.1,408.3c0-0.2,0.1-0.4,0.1-0.7c0.4,0.5,0.2,0.9,0.3,1.2C258.1,408.8,258.1,408.5,258.1,408.3z"/>
	</g>
	<path d="M227.8,384.5c-0.2-0.9,0.3-1.4,0.8-1.9c2.2-2.4,4.5-4.7,6.7-7c0.9-0.9,1.5-1.1,2.5,0c2.2,2.5,4.5,4.8,6.8,7.2
		c1.1,1,1.3,1.5-0.1,2.7c-2.8,2.5-5.4,5.4-8.1,8.2C233.4,390.9,230.5,387.9,227.8,384.5z"/>
	<path d="M254,384.5c-0.2-0.9,0.3-1.4,0.8-1.9c2.2-2.4,4.5-4.7,6.7-7c0.9-0.9,1.5-1.1,2.5,0c2.2,2.5,4.5,4.8,6.8,7.2
		c1.1,1,1.3,1.5-0.1,2.7c-2.8,2.5-5.4,5.4-8.1,8.2C259.5,390.9,256.6,387.9,254,384.5z"/>
	<path class="st11" d="M250.1,379.6c-0.8,0-1.1-0.5-1.5-0.9c-2.3-2.4-4.6-4.9-7-7.3c-0.8-0.8-0.8-1.3,0-2.1c2.5-2.5,4.9-5,7.3-7.6
		c0.7-0.7,1.1-0.9,1.9-0.1c2.4,2.6,4.8,5.1,7.3,7.6c0.5,0.6,1,1.1,0.3,1.9c-2.6,2.7-5.1,5.4-7.7,8
		C250.4,379.4,250.2,379.6,250.1,379.6z"/>
	<path class="st11" d="M249.8,388.2c0.3,0.3,0.6,0.5,0.9,0.8c2.4,2.5,4.8,5.1,7.3,7.6c0.8,0.8,0.9,1.4,0,2.2
		c-2.4,2.4-4.8,4.9-7.1,7.5c-0.8,0.9-1.4,0.8-2.1,0c-2.4-2.6-4.8-5.1-7.3-7.6c-0.5-0.5-0.9-0.9-0.2-1.6c2.7-2.7,5.2-5.4,7.9-8.2
		C249.3,388.6,249.5,388.5,249.8,388.2z"/>
	<path class="st12" d="M227.8,384.5c3,2.9,5.9,6,8.8,9.1c-0.3,0-0.6,0-0.8-0.1c-2.8-2.8-5.5-5.7-8.2-8.5
		C227.6,385,227.8,384.7,227.8,384.5z"/>
	<path class="st12" d="M254,384.5c3,2.9,5.9,6,8.8,9.1c-0.3,0-0.6,0-0.8-0.1c-2.8-2.8-5.5-5.7-8.2-8.5
		C253.8,385,253.9,384.7,254,384.5z"/>
</g>
</svg>
