<?xml version="1.0" encoding="utf-8"?>
<!-- Generator: Adobe Illustrator 16.0.0, SVG Export Plug-In . SVG Version: 6.00 Build 0)  -->
<!DOCTYPE svg PUBLIC "-//W3C//DTD SVG 1.1//EN" "http://www.w3.org/Graphics/SVG/1.1/DTD/svg11.dtd">
<svg version="1.1" id="Layer_1" xmlns="http://www.w3.org/2000/svg" xmlns:xlink="http://www.w3.org/1999/xlink" x="0px" y="0px"
	 width="612px" height="792px" viewBox="0 0 612 792" enable-background="new 0 0 612 792" xml:space="preserve">
<g>
	<g>
		<path fill-rule="evenodd" clip-rule="evenodd" fill="#ECEFE5" d="M55.46,196.852c0-15.488,0.066-30.977-0.059-46.464
			c-0.024-2.897,0.719-3.849,3.754-3.839c31.226,0.108,62.451,0.111,93.678-0.002c3.192-0.012,3.938,1.006,3.928,4.045
			c-0.1,31.1-0.102,62.201,0.002,93.302c0.01,3.061-0.776,4.039-3.946,4.027c-31.226-0.111-62.452-0.111-93.677,0
			c-3.064,0.012-3.758-0.99-3.736-3.857C55.522,228.328,55.46,212.59,55.46,196.852z"/>
	</g>
	<path fill-rule="evenodd" clip-rule="evenodd" d="M65.518,198.201c-0.449-1.574,0.582-2.549,1.511-3.488
		c4.209-4.262,8.475-8.467,12.686-12.729c1.632-1.65,2.896-2.082,4.792-0.025c4.145,4.488,8.52,8.775,12.954,12.984
		c1.991,1.891,2.37,2.785-0.123,4.924c-5.373,4.609-10.21,9.844-15.268,14.82C75.977,209.77,70.519,204.215,65.518,198.201z"/>
	<path fill-rule="evenodd" clip-rule="evenodd" d="M115.012,198.201c-0.45-1.574,0.582-2.549,1.51-3.488
		c4.209-4.262,8.476-8.467,12.686-12.729c1.633-1.65,2.896-2.082,4.793-0.025c4.145,4.488,8.52,8.775,12.953,12.984
		c1.992,1.891,2.371,2.785-0.122,4.924c-5.374,4.609-10.212,9.844-15.269,14.82C125.471,209.77,120.012,204.215,115.012,198.201z"/>
	<path fill-rule="evenodd" clip-rule="evenodd" fill="#44D8E5" d="M107.178,155.459c0.613,0.513,1.211,0.94,1.724,1.451
		c4.69,4.669,9.322,9.398,14.074,14.002c1.314,1.274,1.259,2.041-0.015,3.28c-4.83,4.702-9.607,9.464-14.302,14.304
		c-1.319,1.359-2.085,1.113-3.278-0.111c-4.619-4.738-9.324-9.393-14.021-14.057c-0.972-0.966-1.662-1.73-0.317-3.047
		c4.998-4.89,9.904-9.874,14.854-14.813C106.237,156.129,106.655,155.867,107.178,155.459z"/>
	<path fill-rule="evenodd" clip-rule="evenodd" fill="#44D8E5" d="M124.331,222.053c-0.537,0.611-0.992,1.193-1.51,1.713
		c-4.673,4.686-9.41,9.311-14.004,14.07c-1.402,1.453-2.224,1.307-3.549-0.064c-4.515-4.664-9.115-9.25-13.769-13.777
		c-1.345-1.309-1.574-2.174-0.091-3.605c4.762-4.596,9.394-9.324,14.055-14.023c0.941-0.949,1.705-1.762,3.041-0.402
		c4.897,4.99,9.873,9.906,14.811,14.857C123.655,221.16,123.932,221.564,124.331,222.053z"/>
	<path fill-rule="evenodd" clip-rule="evenodd" fill="#EFF2E8" d="M65.518,198.201c5.763,5.25,11.217,10.809,16.552,16.486
		c-0.481-0.07-1.139,0.037-1.42-0.238c-5.204-5.1-10.366-10.242-15.507-15.406C65.065,198.963,65.385,198.49,65.518,198.201z"/>
	<path fill-rule="evenodd" clip-rule="evenodd" fill="#EFF2E8" d="M115.012,198.201c5.762,5.25,11.216,10.809,16.551,16.486
		c-0.481-0.07-1.138,0.037-1.419-0.238c-5.204-5.1-10.367-10.242-15.507-15.406C114.559,198.963,114.878,198.49,115.012,198.201z"/>
</g>
</svg>
